PathFileType	4	(X/Y/Z)	Patient4_TMGait_0pt6_02_right_18.trc.trc
DataRate	CameraRate	NumFrames	NumMarkers	Units	OrigDataRate	OrigDataStartFrame	OrigNumFrames
82.840236686390	82.840236686390	4	33	mm	82.840236686390	71	       141
Frame#	Time	Sacral			L.Shoulder			Chest			R.Shoulder			Neck			R.ASIS			L.ASIS			R.Thigh.Superior			R.Thigh.Lateral			R.Thigh.Inferior			R.Patella			L.Thigh.Superior			L.Thigh.Lateral			L.Thigh.Inferior			L.Patella			L.Shank.Superior			L.Shank.Lateral			L.Shank.Inferior			R.Shank.Superior			R.Shank.Lateral			R.Shank.Inferior			R.Heel			R.Midfoot.Superior			R.Midfoot.Lateral			R.Toe			L.Heel			L.Midfoot.Lateral			L.Midfoot.Superior			L.Toe			L.Elbow			L.Wrist			R.Elbow			R.Wrist			
		X1	Y1	Z1	X2	Y2	Z2	X3	Y3	Z3	X4	Y4	Z4	X5	Y5	Z5	X6	Y6	Z6	X7	Y7	Z7	X8	Y8	Z8	X9	Y9	Z9	X10	Y10	Z10	X11	Y11	Z11	X12	Y12	Z12	X13	Y13	Z13	X14	Y14	Z14	X15	Y15	Z15	X16	Y16	Z16	X17	Y17	Z17	X18	Y18	Z18	X19	Y19	Z19	X20	Y20	Z20	X21	Y21	Z21	X22	Y22	Z22	X23	Y23	Z23	X24	Y24	Z24	X25	Y25	Z25	X26	Y26	Z26	X27	Y27	Z27	X28	Y28	Z28	X29	Y29	Z29	X30	Y30	Z30	X31	Y31	Z31	X32	Y32	Z32	X33	Y33	Z33	

71	22.365000000000	768.077875112165	1009.564800660533	530.606631397296	952.276891071717	1432.551150291642	347.879106580084	1063.764087567438	1353.280959886274	497.459852790348	998.472969754411	1429.716772456433	677.644617611121	965.560858994075	1488.797449850672	500.521105890020	995.584210572936	936.559370893674	636.023262031361	970.524220016592	952.377613025781	361.411112719765	995.046942203466	725.341599645682	611.354610380291	891.820808953129	632.050952289545	672.758055786452	953.753590624352	565.845901219688	593.677389079444	935.561267389218	481.793493910283	597.542106567402	1037.760327694413	763.480999074017	394.233054057935	980.017701447080	636.634995680427	319.822633796974	1080.542009507990	574.938246388006	382.138172847984	1103.114174832740	510.184142459115	382.180459497284	1086.931412214923	439.122933666693	371.952641305675	1021.016416371281	308.871425975290	323.070799068480	1107.358096792406	210.776007797871	379.654948840660	899.056384541352	398.000580977409	603.563103702248	817.416337237351	302.106109968341	665.266267573897	848.404258404084	203.750805974497	599.911551679623	701.746005103981	44.360128877732	567.497769878764	872.202887944401	95.363566872766	603.923190997465	784.175648362068	36.417889569589	641.951009306642	992.743458054397	41.006245461196	633.130203795319	1020.125171640178	40.288686059968	421.439317492678	1093.605878648020	39.051259613054	340.850108018343	1171.148195964879	108.121063471585	362.235316058753	1302.005188409006	65.858048489020	335.410817300075	820.817627082993	1102.367003795201	241.136783070446	806.478459930099	842.689254446672	227.117633180194	1092.915606233713	1108.442488647792	807.351028753007	1331.769513059742	1139.946537839900	736.603698546237	
72	22.377071428571	768.478953437797	1008.227658807080	528.514169456598	951.096665650508	1431.584576606015	345.309565988755	1062.858423415445	1353.092679745330	495.179922561533	996.774033660883	1429.355053623681	675.229503597488	964.067381036995	1488.143576324247	497.826320753524	996.109763810910	935.789528080400	634.412587006709	971.402897045459	951.552023800457	359.864938205276	995.364500608680	724.262837014398	610.098176075128	891.385674403549	631.281203483318	671.201774646223	953.142807838666	564.634769544298	592.381663004414	934.114878778976	480.256534227159	595.979718645063	1039.150635949142	762.081543192220	393.545605668908	980.369312323881	635.387525626979	319.830135773070	1080.298065578588	573.530979470825	382.806352876483	1101.532888853486	507.684009314543	383.415202521305	1084.678342495442	436.248769823035	372.944797261032	1016.557529238109	307.181303806081	323.605240655896	1100.220592661422	207.442347526559	381.300892516610	896.555639098016	396.735728372627	602.275121013236	813.782756630551	302.089529455167	664.463571644548	842.992964258786	203.180526464917	599.290926362797	694.556418016849	44.779059276022	567.623196367138	865.086801741253	95.414400301532	603.903800916031	777.004373430666	36.567861209577	641.991463427481	985.543367373527	40.786744028473	633.203445736593	1008.835829762618	39.156125836284	422.454586689166	1082.380135783288	37.357023544561	341.817446151401	1161.546849933105	104.185754343996	364.551178131707	1291.781194761122	59.063708538511	337.284910822888	818.787935430974	1101.859668042612	238.942664702751	804.862560013435	842.023151046306	225.214147052310	1088.188093193614	1106.702102631224	805.026656085425	1325.938310865033	1140.147846094136	732.161244003391	
73	22.389142857143	768.889244263582	1007.081979027209	526.371856549851	949.970788728674	1430.717757318509	342.631286983125	1062.026684636473	1353.049115676043	492.798598886600	995.188394473370	1429.196926288096	672.702702171647	962.669960984272	1487.653612516180	494.977195416184	996.676236036341	935.093842580692	632.664499933692	972.217171794407	950.998210759106	358.264854781605	995.753204583235	723.290568661744	608.621157572651	891.067210298882	630.622276441400	669.479957313070	952.635919307276	563.542496266559	590.910133411592	932.841631994461	478.756361451515	594.289220714489	1040.498666458603	760.976163601518	392.805792677005	980.881846669333	634.584771672701	319.565677319954	1080.145575986715	572.518533098135	383.372559518785	1100.010754493826	505.636787038896	384.488684281097	1082.625997483462	433.876262850886	373.694841862839	1012.678457486486	305.931703395759	323.695315641431	1093.666769283336	204.728572688847	382.625556060010	894.157230941830	395.577659986370	600.886075878923	810.234820613088	302.241922091270	663.610506327427	837.651899216704	202.769245461747	598.662927342280	687.396412142854	45.434109525233	567.791774726303	858.062259462195	95.506100762251	603.891038000087	769.883965261632	36.819261368733	642.045356604118	978.397651207020	40.541753697143	633.273983653060	998.472718549756	38.333109399549	423.063986640982	1072.156460212072	36.209304536445	342.459934711972	1152.582631126338	101.160835960751	366.510222081926	1282.340309950256	53.771354171548	338.958399711411	817.419322145871	1101.153642138497	236.621346722076	804.111238721185	841.155543652458	223.188484954438	1082.910927534289	1104.964941390284	802.684934176484	1319.902248092878	1139.107090189488	728.092021741133	
74	22.401214285714	769.289768740258	1006.210122958220	524.191344756362	948.897811229274	1430.025696545378	339.883238587679	1061.273894954910	1353.185351876713	490.325933190314	993.778074829798	1429.287738800846	670.085434239460	961.395444668143	1487.379783113931	492.020198621113	997.244394534911	934.539050341716	630.749199399741	972.923273984156	950.767153580616	356.557414914796	996.146126600960	722.489170302708	606.893997701413	890.838166960016	630.130950252072	667.608415686857	952.223443051780	562.631735261512	589.275215409630	931.779368093277	477.325830599330	592.545262866268	1041.753565045317	760.285835666356	391.961604737488	981.544475325867	634.267196681843	319.021181989593	1080.093475279551	571.953242271630	383.741991411690	1098.594685660288	504.104155944171	385.293125982232	1080.786125105463	432.049235002559	374.149780236614	1009.356635326211	305.152026297134	323.365776466845	1087.715917499455	202.669837615582	383.590706488796	891.876190064414	394.574418189960	599.451570833274	806.759315611696	302.620805450857	662.732060471408	832.400289533014	202.568080458360	598.065979820366	680.271320123587	46.396633001137	568.011163118839	851.159668055433	95.642756024869	603.903051849768	762.817073332716	37.199200355494	642.116654577217	971.310129353767	40.274664398577	633.339555023973	989.120385395462	37.813478815752	423.345164448536	1062.976228780668	35.552967222084	342.819586411638	1144.293479397571	99.051484675948	368.033035248400	1273.716682511295	50.016941932680	340.311526613759	816.715138210948	1100.325258667438	234.190883048091	804.232642582049	840.165580178059	221.042590481229	1077.093394356109	1103.302766914124	800.305406976319	1313.699711719670	1136.777982955265	724.395134660395	
